<svg xmlns="http://www.w3.org/2000/svg" width="71" height="71" viewBox="0 0 71 71">
  <g id="Group_1086" data-name="Group 1086" transform="translate(-153 -436)">
    <g id="Ellipse_150" data-name="Ellipse 150" transform="translate(153 436)" fill="none" stroke="#fa8e71" stroke-width="2.5">
      <circle cx="35.5" cy="35.5" r="35.5" stroke="none"/>
      <circle cx="35.5" cy="35.5" r="34.25" fill="none"/>
    </g>
    <g id="mentor" transform="translate(165 447)">
      <path id="Path_289" data-name="Path 289" d="M92.566,13.125A6.562,6.562,0,1,0,86,6.562,6.57,6.57,0,0,0,92.566,13.125Zm0-9.375a2.812,2.812,0,1,1-2.812,2.812A2.816,2.816,0,0,1,92.566,3.75Zm0,0" transform="translate(-77.941)" fill="#fc8c71" stroke="#fff" stroke-width="1"/>
      <path id="Path_290" data-name="Path 290" d="M359.957,91.793a6.562,6.562,0,1,0-6.562-6.562A6.57,6.57,0,0,0,359.957,91.793Zm0-9.375a2.812,2.812,0,1,1-2.812,2.812A2.816,2.816,0,0,1,359.957,82.418Zm0,0" transform="translate(-320.264 -71.293)" fill="#fc8c71" stroke="#fff" stroke-width="1"/>
      <path id="Path_291" data-name="Path 291" d="M39.693,163.807a8.308,8.308,0,0,0-7.024,3.876h0a3.422,3.422,0,0,1-3.418-3.418,7.176,7.176,0,0,0-7.168-7.168H7.168A7.176,7.176,0,0,0,0,164.266c0,.917,0,22.991,0,24.229a1.875,1.875,0,0,0,1.875,1.875h44.25A1.875,1.875,0,0,0,48,188.495v-16.38A8.316,8.316,0,0,0,39.693,163.807Zm0,3.75a4.562,4.562,0,0,1,4.557,4.557v.937H35.136v-.937A4.562,4.562,0,0,1,39.693,167.557ZM25.5,164.265a7.178,7.178,0,0,0,5.923,7.058c-.058.611-.031.951-.038,1.729H21.73v-12.2h.353A3.422,3.422,0,0,1,25.5,164.265Zm-7.52-3.418v12.2H11.271v-12.2Zm-10.812,0H7.52v12.2H3.75v-8.786A3.422,3.422,0,0,1,7.168,160.848ZM44.25,186.62H3.75V176.8h40.5Zm0,0" transform="translate(0 -142.37)" fill="#fc8c71" stroke="#fff" stroke-width="1"/>
    </g>
  </g>
</svg>
